<!-- <svg xmlns="http://www.w3.org/2000/svg" viewBox="0 0 841.9 595.3">
    <g fill="#61DAFB">
        <path d="M666.3 296.5c0-32.5-40.7-63.3-103.1-82.4 14.4-63.6 8-114.2-20.2-130.4-6.5-3.8-14.1-5.6-22.4-5.6v22.3c4.6 0 8.3.9 11.4 2.6 13.6 7.8 19.5 37.5 14.9 75.7-1.1 9.4-2.9 19.3-5.1 29.4-19.6-4.8-41-8.5-63.5-10.9-13.5-18.5-27.5-35.3-41.6-50 32.6-30.3 63.2-46.9 84-46.9V78c-27.5 0-63.5 19.6-99.9 53.6-36.4-33.8-72.4-53.2-99.9-53.2v22.3c20.7 0 51.4 16.5 84 46.6-14 14.7-28 31.4-41.3 49.9-22.6 2.4-44 6.1-63.6 11-2.3-10-4-19.7-5.2-29-4.7-38.2 1.1-67.9 14.6-75.8 3-1.8 6.9-2.6 11.5-2.6V78.5c-8.4 0-16 1.8-22.6 5.6-28.1 16.2-34.4 66.7-19.9 130.1-62.2 19.2-102.7 49.9-102.7 82.3 0 32.5 40.7 63.3 103.1 82.4-14.4 63.6-8 114.2 20.2 130.4 6.5 3.8 14.1 5.6 22.5 5.6 27.5 0 63.5-19.6 99.9-53.6 36.4 33.8 72.4 53.2 99.9 53.2 8.4 0 16-1.8 22.6-5.6 28.1-16.2 34.4-66.7 19.9-130.1 62-19.1 102.5-49.9 102.5-82.3zm-130.2-66.7c-3.7 12.9-8.3 26.2-13.5 39.5-4.1-8-8.4-16-13.1-24-4.6-8-9.5-15.8-14.4-23.4 14.2 2.1 27.9 4.7 41 7.9zm-45.8 106.5c-7.8 13.5-15.8 26.3-24.1 38.2-14.9 1.3-30 2-45.2 2-15.1 0-30.2-.7-45-1.9-8.3-11.9-16.4-24.6-24.2-38-7.6-13.1-14.5-26.4-20.8-39.8 6.2-13.4 13.2-26.8 20.7-39.9 7.8-13.5 15.8-26.3 24.1-38.2 14.9-1.3 30-2 45.2-2 15.1 0 30.2.7 45 1.9 8.3 11.9 16.4 24.6 24.2 38 7.6 13.1 14.5 26.4 20.8 39.8-6.3 13.4-13.2 26.8-20.7 39.9zm32.3-13c5.4 13.4 10 26.8 13.8 39.8-13.1 3.2-26.9 5.9-41.2 8 4.9-7.7 9.8-15.6 14.4-23.7 4.6-8 8.9-16.1 13-24.1zM421.2 430c-9.3-9.6-18.6-20.3-27.8-32 9 .4 18.2.7 27.5.7 9.4 0 18.7-.2 27.8-.7-9 11.7-18.3 22.4-27.5 32zm-74.4-58.9c-14.2-2.1-27.9-4.7-41-7.9 3.7-12.9 8.3-26.2 13.5-39.5 4.1 8 8.4 16 13.1 24 4.7 8 9.5 15.8 14.4 23.4zM420.7 163c9.3 9.6 18.6 20.3 27.8 32-9-.4-18.2-.7-27.5-.7-9.4 0-18.7.2-27.8.7 9-11.7 18.3-22.4 27.5-32zm-74 58.9c-4.9 7.7-9.8 15.6-14.4 23.7-4.6 8-8.9 16-13 24-5.4-13.4-10-26.8-13.8-39.8 13.1-3.1 26.9-5.8 41.2-7.9zm-90.5 125.2c-35.4-15.1-58.3-34.9-58.3-50.6 0-15.7 22.9-35.6 58.3-50.6 8.6-3.7 18-7 27.7-10.1 5.7 19.6 13.2 40 22.5 60.9-9.2 20.8-16.6 41.1-22.2 60.6-9.9-3.1-19.3-6.5-28-10.2zM310 490c-13.6-7.8-19.5-37.5-14.9-75.7 1.1-9.4 2.9-19.3 5.1-29.4 19.6 4.8 41 8.5 63.5 10.9 13.5 18.5 27.5 35.3 41.6 50-32.6 30.3-63.2 46.9-84 46.9-4.5-.1-8.3-1-11.3-2.7zm237.2-76.2c4.7 38.2-1.1 67.9-14.6 75.8-3 1.8-6.9 2.6-11.5 2.6-20.7 0-51.4-16.5-84-46.6 14-14.7 28-31.4 41.3-49.9 22.6-2.4 44-6.1 63.6-11 2.3 10.1 4.1 19.8 5.2 29.1zm38.5-66.7c-8.6 3.7-18 7-27.7 10.1-5.7-19.6-13.2-40-22.5-60.9 9.2-20.8 16.6-41.1 22.2-60.6 9.9 3.1 19.3 6.5 28.1 10.2 35.4 15.1 58.3 34.9 58.3 50.6-.1 15.7-23 35.6-58.4 50.6zM320.8 78.4z"/>
        <circle cx="420.9" cy="296.5" r="45.7"/>
        <path d="M520.5 78.1z"/>
    </g>
</svg> -->
<svg xmlns="http://www.w3.org/2000/svg" viewBox="0 0 474 610.68">
    <g>
        <path d="M42,442v5c2.6-.69,5.37-1,7.78-2.14,6.39-2.92,12.64-6.17,19.68-9.65,0,6.36,0,11.14,0,15.92-.05,49.18,19,88.45,60.2,116.29,22.4,15.15,46.84,26.16,72.53,34.11,27.93,8.64,52.23,23.13,74,42.35a25.94,25.94,0,0,0,2.72,1.79c0-2.61-.06-4.57,0-6.54,1-27,12.25-42.6,37.65-51.79,5.63-2,11.35-3.84,17.1-5.5,25.92-7.49,51.78-15,76-27.28,29.44-14.88,50.49-37.1,60.86-68.76,2.28-6.95,4-14.06,6.46-22.54a27.89,27.89,0,0,1,0,3.43c-3.49,18.3-9.48,35.64-19.48,51.5-16,25.34-39.31,41.81-66,53.94-19.39,8.82-39.3,16.47-58.79,25.06-15.94,7-31.21,15.34-42.28,29.33-4.22,5.34-7.39,11.52-11,17.31l1.32.88c1-.83,2-1.63,3-2.48,20.41-17.56,42.81-31.52,68.78-39.53a325.44,325.44,0,0,0,58.8-24.8C463.81,549.51,490.11,506,488.55,446c-.08-3.1,0-6.21,0-9.91a37,37,0,0,1,5.4,1.65c5.39,2.61,10.63,5.52,16.06,8,1.8.83,4,.79,6,1.15v-5c-7.63-16.21-15-32.56-23-48.57-2.45-4.9-6-12.19-12.09-13a11.33,11.33,0,0,0-4.37.34c-2.54.65-3.21,2.63-4.62,4.64q-2.4,3.42-4.69,6.92-4.46,6.81-8.49,13.9a256.32,256.32,0,0,0-14.14,29,27.4,27.4,0,0,0-1.73,6.24,15.83,15.83,0,0,0,.45,4.16c1.42-.2,3-.09,4.23-.64,5.64-2.45,11.16-5.18,16.81-7.62,1.89-.81,4-1,7.05-1.79-9.12,35.44-19.9,68.74-55.59,85.16-22,10.14-45.75,14.29-70,13.41-17.18-.62-28.91-12.28-30.19-29.45-1.65-22.25-2.57-44.56-3.75-66.84q-2.87-54.13-5.68-108.27-2.58-49.65-5.08-99.3a25.57,25.57,0,0,1,.22-2.88c6.16-.46,12.26-.88,18.34-1.37,7.13-.58,14.25-1.44,21.4-1.73a11.78,11.78,0,0,1,6.32,2.17c2.65,1.72,4.49,1.64,6.25-1,2.8-4.28,6.72-4.52,10.27-.72,6.57,7.06,15.92,9.13,24.13,5.35,8.47-3.9,13.12-12.59,11.85-22.17-1.15-8.65-8.37-15.85-17.69-17.24-7.11-1.06-13.08,1.5-17.95,6.68-3.92,4.17-7.42,4-10.65-.46-1.84-2.55-3.89-2.7-6.36-.76-1.18.92-2.7,2.15-4,2.06-14.42-1-28.83-2.23-43.79-3.45q-.72-12.42-1.44-24.82c-.28-5-.31-10-.85-15-.42-3.84.59-5.77,4.47-7.4,24.53-10.34,37.9-33.85,35.23-61.18-2.31-23.63-21.32-44.34-45.61-49.68L284,35H274c-6.52,1.9-13.46,2.92-19.47,5.85-22.08,10.74-34,28.8-33.73,53.37.25,25,12.78,42.87,35.5,53.25,3.7,1.69,4.83,3.34,4.52,7.35-.9,11.62-1.38,23.27-1.77,34.92-.13,3.86-1.19,5.38-5.44,5.57-11.8.54-23.57,1.76-35.36,2.64-2.85.21-5.78,1.1-8.1-2.09-.52-.72-4.6-.15-5.64,1-3.45,4-6.85,4.49-10.42.7-8.7-9.25-21.49-9.76-30.17-1.21a20.79,20.79,0,0,0,.21,29.6c8.62,8.37,21.56,7.64,30.19-1.69,3.19-3.45,7.39-3.12,10,.87,1.89,2.87,3.87,3.17,6.54.87,1.21-1,3-2.11,4.46-2,13.13.84,26.24,1.94,39.35,3a14,14,0,0,1,2.27.64c-.2,2.86-.43,5.64-.57,8.42-1.77,35.43-3.45,70.86-5.29,106.29q-3.76,72.34-7.69,144.67c-.31,5.82-.46,11.65-1,17.45-1.58,17-13,28.92-30.14,29.46-11.53.36-23.2-1.32-34.69-3-13.71-1.95-27.05-5.61-39.41-12.16C115.9,507,103.49,487.32,95.22,464.51c-3.31-9.14-5.76-18.59-9.07-29.43,4.29,1.3,7.16,1.89,9.8,3,4.89,2.09,9.62,4.57,14.49,6.72a17.38,17.38,0,0,0,4.21.73c.15-1.55.85-3.3.36-4.61-2.54-6.85-4.75-13.93-8.25-20.28q-6.55-11.89-13.57-23.5c-3.67-6.06-7.18-15.52-15.83-14.32a15.48,15.48,0,0,0-7.7,3.46c-1.78,1.57-2.9,4.13-4.15,6.18-3.08,5-6,10.17-8.76,15.4a205.11,205.11,0,0,0-13.62,31.93A14.6,14.6,0,0,1,42,442ZM184.41,204.2c-.36.47-.73.94-1.1,1.41a8.82,8.82,0,0,1-12.84,11.94c-2,.88-4.36,1.32-5.8.68-2-.89-2.7-4.71-4-7.25.95-9.72,9.25-17.53,18.51-17C186.21,194.33,188.63,198.63,184.41,204.2Zm19.18,14.21-4.76-.54V204.12l4.76-.32Zm157.93-6.7c.66-10.45,9.7-18.86,19.35-17.7,6.28.75,8.51,4.55,4.77,9.59l-.14.18a8.83,8.83,0,1,1-12.18,12.59l-.45.39c-1.71,1.48-5.42,2.47-7.17,1.59C363.7,217.35,362.86,214,361.52,211.71ZM260.09,236.16c.15-2.91.62-5.8,1-8.89l11,.54c0,2.65,0,4.63,0,6.6-.54,27.82-1.14,55.64-1.61,83.46q-1.57,92.72-3,185.44c-.39,24.82-15,43.84-38.77,50.86-14.69,4.34-29.06,1.89-43.42-1.19-29.26-6.28-55.15-18.66-74.53-42.33-16.64-20.34-24.46-44.17-27.28-69.91a26.35,26.35,0,0,1,1.83,4.54C89,456,92.1,466.91,96.6,477.24c9.45,21.65,24.2,38.62,46.48,47.92A171.18,171.18,0,0,0,207.37,538c24.22.29,37.82-13.3,39.19-37.78,2.88-51.56,5.49-103.14,8.12-154.71C256.55,309,258.27,272.6,260.09,236.16Zm-9.78-115,1.21-1.41,11,8.29-1.45,1.7C256.92,127.53,253,125.05,250.31,121.18Zm-3.74-36.52a33.68,33.68,0,0,1,34-24.75A34.12,34.12,0,0,1,312,86.73c2.91,14.3-4,29.94-15.9,35.38-.14-4.79-3.48-6.19-7.32-6.28-6.94-.17-13.9-.08-20.84.25-3.39.16-6.19,1.66-5.81,6.42A32.93,32.93,0,0,1,246.57,84.66Zm16.09,105.25q1.58-32.4,3.17-64.8c.28-5.76,1.63-6.77,8.24-5.62,0,1.56,0,3.2,0,4.84q-.52,30.69-1,61.39c-.16,9.4-.13,9.4-10.38,8.86C262.66,192.81,262.6,191.36,262.67,189.91ZM317.2,57.07c-9.35-7.82-19.59-13.08-32-13.35s-24.11,2.71-33.55,10.74c-26.76,22.75-30.64,48.86-8.9,78.43-12.24-5.72-20.61-29.69-17.77-48.21,3.7-24.08,23.43-42.43,49-45.56C290,37.16,313.43,46.49,317.2,57.07ZM296.93,132.9c-1.57-5-1.53-5.15,2.21-7.71,19.35-13.23,23-37.53,8.39-55.67-.87-1.08-1.62-2.27-2.67-3.75,7.05.72,15.85,17.36,16.32,29.75C321.86,113.18,310.71,130.36,296.93,132.9Zm175.7,270.38a3,3,0,0,0-1.44.43,5.55,5.55,0,0,0-1.09.87,98.77,98.77,0,0,0-8.27,9.15l-9.34,11.44c1.09-1.33,1.69-3.62,2.44-5.18q1.41-2.92,2.89-5.8,3-5.79,6.26-11.42t7-11.18c1.83-2.73,3.78-7.5,7.78-6.91,4.92.72,7.33,6.16,9.58,9.89q4.56,7.55,8.64,15.38A232.42,232.42,0,0,1,511,442.57a60.77,60.77,0,0,1-12.1-6.64,63.85,63.85,0,0,1-15.28-15.75,97.14,97.14,0,0,1-5.78-9.51,45.42,45.42,0,0,1-2.59-5.09C474.73,404.26,473.85,403.27,472.62,403.28ZM285.9,249.87l1.51-.08c.16,1.68.42,3.36.47,5,2.38,82.43,5,164.85,7,247.29.14,6.15.67,14.17,4.8,19.07,5.86,6.93,14,11.72,22.69,14.39a69.17,69.17,0,0,0,28.88,2.63c13.18-1.81,26.48-3,39.51-5.54,24.11-4.72,45-15.29,59.61-36,9.86-13.92,16.07-29.44,20.72-45.69,1-3.51,2-7,3.07-10.52-.88,15-5.07,29.12-10.86,42.84-21.15,50.17-71.46,73.41-111.57,73.73a96.32,96.32,0,0,1-14-.88c-28.79-4-47-23-47.48-51.32Q287.92,379.91,285.9,255C285.88,253.27,285.9,251.57,285.9,249.87Zm-12.34-26.1c-7.44.24-14.89-.36-22.33-.84-9.31-.62-18.61-1.26-27.91-2-11.63-.88-11.62-1-11.54-12.89a17.82,17.82,0,0,0,0-2c-.32-3,1.24-3.92,4.07-4.23a591.76,591.76,0,0,1,61.5-3.6c8.71,0,17.41,0,26.11.32q5,.16,10.09.39c3,.14,9.38-.59,9.67,3.47a7.4,7.4,0,0,1-2.25,5.25c-2.37,2.63-5.55,4.4-8.73,6a98.52,98.52,0,0,1-29.94,9.41A82.74,82.74,0,0,1,273.56,223.78ZM78.51,447.08q.81,5.16,1.62,10.31c4.71,29.76,16,56.21,38.71,76.9,15.89,14.48,34.55,24.3,54.65,31.29,20.56,7.15,41.47,13.32,62.13,20.2,10.77,3.58,21.27,8,29.6,16,3.17,3.06,5.6,6.9,8.36,10.38l-1.19,1c-7.93-9.12-18.37-14.2-29.33-18.35-7.46-2.83-15-5.41-22.61-7.9-24.18-7.92-48.63-15.11-71.23-27.15-26.8-14.28-48-34-60.05-62.39A135.86,135.86,0,0,1,78.51,447.08ZM47,441.63c.84-.33,2.16-6.53,2.53-7.58q1.4-3.92,3-7.77,3.18-7.84,7-15.4,3.71-7.37,7.93-14.47c2.71-4.56,4.35-8.84,10.06-9.67a9.61,9.61,0,0,1,3.46,0c3.19.71,4.62,4.42,6.11,6.92L93.21,404c1,1.72,12.21,20.68,12.32,20.62l-1,.55-10-12.18-5.14-6.28c-1.17-1.43-1.85-3.05-4-3.17-4.09-.22-5.24,5.27-6.8,8.13C71.48,424.88,61.24,436,47,441.63Z" transform="translate(-42.01 -34.96)"/>
        <circle cx="338.18" cy="175.87" r="8.83"/>
        <circle cx="134.85" cy="175.87" r="8.83"/>
    </g>
</svg>